<svg width="29" height="32" viewBox="0 0 29 32" fill="none" xmlns="http://www.w3.org/2000/svg">
<path d="M2.71875 32C1.99375 32 1.35938 31.76 0.815625 31.28C0.271875 30.8 0 30.24 0 29.6V8.8C0 8.16 0.271875 7.6 0.815625 7.12C1.35938 6.64 1.99375 6.4 2.71875 6.4H7.70313V6C7.70313 4.32 8.36016 2.9 9.67422 1.74C10.9883 0.58 12.5969 0 14.5 0C16.4031 0 18.0117 0.58 19.3258 1.74C20.6398 2.9 21.2969 4.32 21.2969 6V6.4H26.2812C27.0063 6.4 27.6406 6.64 28.1844 7.12C28.7281 7.6 29 8.16 29 8.8V29.6C29 30.24 28.7281 30.8 28.1844 31.28C27.6406 31.76 27.0063 32 26.2812 32H2.71875ZM2.71875 29.6H26.2812V8.8H21.2969V12.4C21.2969 12.74 21.1658 13.025 20.9038 13.255C20.6417 13.485 20.317 13.6 19.9296 13.6C19.5422 13.6 19.2201 13.485 18.9633 13.255C18.7065 13.025 18.5781 12.74 18.5781 12.4V8.8H10.4219V12.4C10.4219 12.74 10.2908 13.025 10.0288 13.255C9.7667 13.485 9.44196 13.6 9.05457 13.6C8.66715 13.6 8.34505 13.485 8.08828 13.255C7.83151 13.025 7.70313 12.74 7.70313 12.4V8.8H2.71875V29.6ZM10.4219 6.4H18.5781V6C18.5781 4.98667 18.1854 4.13333 17.4 3.44C16.6146 2.74667 15.6479 2.4 14.5 2.4C13.3521 2.4 12.3854 2.74667 11.6 3.44C10.8146 4.13333 10.4219 4.98667 10.4219 6V6.4Z" fill="#7168D9"/>
</svg>
